<svg width="219" height="134" viewBox="0 0 219 134" fill="none" xmlns="http://www.w3.org/2000/svg">
<g clip-path="url(#clip0)">
<path d="M26.8441 133.652L26.47 133.567C30.6413 115.002 41.1241 98.1431 55.9874 86.0959C67.2246 77.002 80.5895 70.92 94.8237 68.4225C109.058 65.9249 123.693 67.0941 137.351 71.8199C151.009 76.5457 163.241 84.6726 172.894 95.4354C182.548 106.198 189.305 119.243 192.531 133.341L192.157 133.426C183.327 94.6244 149.348 67.5249 109.526 67.5249C70.2259 67.5249 35.4531 95.3352 26.8441 133.652Z" fill="#3F3D56"/>
<path d="M80.4784 24.3919C86.2299 24.3919 90.8924 19.7256 90.8924 13.9694C90.8924 8.21328 86.2299 3.547 80.4784 3.547C74.727 3.547 70.0645 8.21328 70.0645 13.9694C70.0645 19.7256 74.727 24.3919 80.4784 24.3919Z" fill="#FFD873"/>
<path d="M35.6125 131.284C35.9373 132.486 37.0497 133.23 37.0497 133.23C37.0497 133.23 37.6356 132.026 37.3108 130.824C36.986 129.623 35.8736 128.879 35.8736 128.879C35.8736 128.879 35.2877 130.083 35.6125 131.284Z" fill="#3F3D56"/>
<path d="M36.0897 131.026C36.981 131.894 37.0898 133.229 37.0898 133.229C37.0898 133.229 35.7537 133.156 34.8625 132.288C33.9713 131.419 33.8624 130.085 33.8624 130.085C33.8624 130.085 35.1985 130.158 36.0897 131.026Z" fill="#5282F0"/>
<path d="M60.346 131.284C60.6708 132.486 61.7833 133.23 61.7833 133.23C61.7833 133.23 62.3692 132.026 62.0444 130.824C61.7196 129.623 60.6071 128.879 60.6071 128.879C60.6071 128.879 60.0212 130.083 60.346 131.284Z" fill="#3F3D56"/>
<path d="M60.8233 131.026C61.7145 131.894 61.8233 133.229 61.8233 133.229C61.8233 133.229 60.4872 133.156 59.596 132.288C58.7048 131.419 58.5959 130.085 58.5959 130.085C58.5959 130.085 59.932 130.158 60.8233 131.026Z" fill="#5282F0"/>
<path d="M65.2504 35.5731L61.3345 32.4377L83.2637 12.8422H138.87V30.0863L102.843 54.3847L65.2504 35.5731Z" fill="#3F3D56"/>
<path d="M149.008 23.8342V13.2337H141.625V15.8297L138.87 12.8422L120.856 32.4377L113.808 37.1406L102.879 117.055L119.361 133.551H157.666V33.2215L149.008 23.8342Z" fill="#CCCCCC"/>
<path d="M120.857 32.4378H61.3345V133.551H120.857V32.4378Z" fill="#F2F2F2"/>
<path d="M95.4031 108.86H84.4385V133.551H95.4031V108.86Z" fill="#CCCCCC"/>
<path d="M72.6906 115.915V111.995H67.9916V115.915H72.299H72.6906Z" fill="#3F3D56"/>
<path d="M72.299 119.05H67.9916V122.969H72.6906V119.05H72.299Z" fill="#3F3D56"/>
<path d="M80.5226 111.996H75.8235V115.915H80.5226V111.996Z" fill="#3F3D56"/>
<path d="M80.5226 119.05H75.8235V122.969H80.5226V119.05Z" fill="#3F3D56"/>
<path d="M104.801 115.915V111.995H100.102V115.915H104.41H104.801Z" fill="#3F3D56"/>
<path d="M104.41 119.05H100.102V122.969H104.801V119.05H104.41Z" fill="#3F3D56"/>
<path d="M112.633 111.996H107.934V115.915H112.633V111.996Z" fill="#3F3D56"/>
<path d="M112.633 119.05H107.934V122.969H112.633V119.05Z" fill="#3F3D56"/>
<path d="M137.695 37.5325V33.6136H132.996V37.5325H137.303H137.695Z" fill="#3F3D56"/>
<path d="M137.303 40.668H132.996V44.5869H137.695V40.668H137.303Z" fill="#3F3D56"/>
<path d="M145.527 33.6135H140.828V37.5326H145.527V33.6135Z" fill="#3F3D56"/>
<path d="M145.527 40.6679H140.828V44.587H145.527V40.6679Z" fill="#3F3D56"/>
<path d="M137.695 59.4796V55.5605H132.996V59.4796H137.303H137.695Z" fill="#3F3D56"/>
<path d="M137.303 62.6148H132.996V66.5339H137.695V62.6148H137.303Z" fill="#3F3D56"/>
<path d="M145.527 55.5605H140.828V59.4796H145.527V55.5605Z" fill="#3F3D56"/>
<path d="M145.527 62.6149H140.828V66.534H145.527V62.6149Z" fill="#3F3D56"/>
<path d="M137.695 81.4266V77.5074H132.996V81.4266H137.303H137.695Z" fill="#3F3D56"/>
<path d="M137.303 84.5619H132.996V88.481H137.695V84.5619H137.303Z" fill="#3F3D56"/>
<path d="M145.527 77.5074H140.828V81.4266H145.527V77.5074Z" fill="#3F3D56"/>
<path d="M145.527 84.5619H140.828V88.481H145.527V84.5619Z" fill="#3F3D56"/>
<path d="M137.695 103.374V99.4545H132.996V103.374H137.303H137.695Z" fill="#3F3D56"/>
<path d="M137.303 106.509H132.996V110.428H137.695V106.509H137.303Z" fill="#3F3D56"/>
<path d="M145.527 99.4545H140.828V103.374H145.527V99.4545Z" fill="#3F3D56"/>
<path d="M145.527 106.509H140.828V110.428H145.527V106.509Z" fill="#3F3D56"/>
<path d="M113.416 37.5326H67.9916V46.9385H113.416V37.5326Z" fill="#3F3D56"/>
<path d="M113.416 56.3443H67.9916V65.7501H113.416V56.3443Z" fill="#3F3D56"/>
<path d="M113.416 75.156H67.9916V84.5619H113.416V75.156Z" fill="#3F3D56"/>
<path d="M113.416 93.9678H67.9916V103.374H113.416V93.9678Z" fill="#3F3D56"/>
<path d="M218.5 133.156H0.500366V133.54H218.5V133.156Z" fill="#3F3D56"/>
<path d="M38.1336 88.8464H37.0072V133.375H38.1336V88.8464Z" fill="#3F3D56"/>
<path d="M48.5289 94.5211C48.6006 110.092 37.6548 122.765 37.6548 122.765C37.6548 122.765 26.5928 110.193 26.5211 94.6226C26.4494 79.0521 37.3951 66.379 37.3951 66.379C37.3951 66.379 48.4571 78.9506 48.5289 94.5211Z" fill="#5282F0"/>
<path opacity="0.1" d="M48.5289 94.5211C48.6006 110.092 37.6548 122.765 37.6548 122.765C37.6548 122.765 26.5928 110.193 26.5211 94.6226C26.4494 79.0521 37.3951 66.379 37.3951 66.379C37.3951 66.379 48.4571 78.9506 48.5289 94.5211Z" fill="black"/>
<path d="M23.4905 88.8464H22.3641V133.375H23.4905V88.8464Z" fill="#3F3D56"/>
<path d="M33.8858 94.5211C33.9575 110.092 23.0117 122.765 23.0117 122.765C23.0117 122.765 11.9497 110.193 11.878 94.6226C11.8063 79.0521 22.7521 66.379 22.7521 66.379C22.7521 66.379 33.8141 78.9506 33.8858 94.5211Z" fill="#5282F0"/>
<path d="M181.794 32.3748C172.921 32.4157 165.699 32.5469 165.699 32.5469C165.699 32.5469 174.284 21.1666 181.762 25.3829C189.24 29.5993 197.83 32.3987 197.83 32.3987C197.83 32.3987 190.667 32.3339 181.794 32.3748Z" fill="#F2F2F2"/>
<path d="M33.9681 54.2501C25.0954 54.291 17.8733 54.4222 17.8733 54.4222C17.8733 54.4222 26.4579 43.0418 33.9359 47.2582C41.414 51.4745 50.0044 54.274 50.0044 54.274C50.0044 54.274 42.8409 54.2091 33.9681 54.2501Z" fill="#F2F2F2"/>
<path d="M66.1793 8.58062C57.3065 8.62155 50.0845 8.75274 50.0845 8.75274C50.0845 8.75274 58.669 -2.62763 66.1471 1.58872C73.6252 5.80506 82.2156 8.60453 82.2156 8.60453C82.2156 8.60453 75.0521 8.53969 66.1793 8.58062Z" fill="#F2F2F2"/>
<path d="M200.076 88.8464H198.95V133.375H200.076V88.8464Z" fill="#3F3D56"/>
<path d="M210.471 94.5211C210.543 110.092 199.597 122.765 199.597 122.765C199.597 122.765 188.535 110.193 188.464 94.6226C188.392 79.0521 199.338 66.379 199.338 66.379C199.338 66.379 210.4 78.9506 210.471 94.5211Z" fill="#5282F0"/>
<path d="M158.616 105.735H169.984V102.989H176.255V105.735H188.015V117.897H176.255V133.197H169.984V117.897H158.616L152.736 111.228L158.616 105.735Z" fill="#3F3D56"/>
</g>
<defs>
<clipPath id="clip0">
<rect width="218" height="133" fill="white" transform="translate(0.500366 0.651794)"/>
</clipPath>
</defs>
</svg>
