<svg width="216" height="127" viewBox="0 0 216 127" fill="none" xmlns="http://www.w3.org/2000/svg">
<circle cx="175.85" cy="40.048" r="39.4" fill="#DCDCDC" stroke="#D0D0D0"/>
<circle cx="107.6" cy="86.248" r="39.4" fill="#DCDCDC" stroke="#D0D0D0"/>
<circle cx="40.4004" cy="40.048" r="39.4" fill="#DCDCDC" stroke="#D0D0D0"/>
<path d="M58.238 33.2281C58.238 41.8107 50.2257 40.5126 40.3421 40.5126C30.4584 40.5126 22.4462 41.8107 22.4462 33.2281C22.4462 24.6454 26.36 9.43207 40.3421 9.43207C54.8059 9.43207 58.238 24.6454 58.238 33.2281Z" fill="#2F2E41"/>
<path d="M58.9619 47.6727C58.6166 46.6859 57.9285 45.8528 57.0203 45.3222C56.845 45.2156 56.6613 45.123 56.4711 45.0454C55.6746 44.7173 54.7988 44.6262 53.9509 44.7832C53.103 44.9402 52.3196 45.3385 51.6965 45.9294C51.0734 46.5203 50.6377 47.2781 50.4424 48.1104C50.2472 48.9426 50.301 49.8132 50.5973 50.6156L57.7262 66.6657H67.1155L58.9619 47.6727Z" fill="#5282F0"/>
<path d="M27.8522 48.5467C27.2887 48.277 26.674 48.1283 26.0485 48.1105C25.4229 48.0926 24.8006 48.2059 24.2224 48.443C23.6441 48.6801 23.123 49.0355 22.6932 49.4861C22.2635 49.9367 21.9347 50.4721 21.7285 51.0574L15.0898 66.5248C15.4298 66.6187 15.7812 66.6661 16.1341 66.6656H24.4644L30.0928 54.0003C30.4682 52.9779 30.4469 51.8538 30.0329 50.8461C29.6189 49.8384 28.8417 49.0189 27.8522 48.5467Z" fill="#5282F0"/>
<path d="M40.2822 40.4983C46.933 40.4983 52.3245 35.1581 52.3245 28.5706C52.3245 21.9832 46.933 16.643 40.2822 16.643C33.6315 16.643 28.24 21.9832 28.24 28.5706C28.24 35.1581 33.6315 40.4983 40.2822 40.4983Z" fill="#FFB8B8"/>
<path d="M57.2308 45.5115C57.1623 45.4484 57.0936 45.3804 57.0201 45.3221C56.1806 44.5725 55.1871 44.0119 54.1079 43.6791C53.0287 43.3462 51.8895 43.249 50.7688 43.3942L28.5777 46.1768C26.5449 46.4259 24.6901 47.4496 23.4067 49.0308C22.1234 50.612 21.5125 52.6263 21.7037 54.6463C22.0078 58.036 22.4981 62.3144 23.2826 66.6657H58.339L59.6284 51.8247C59.7322 50.6617 59.5706 49.4904 59.1555 48.3976C58.7405 47.3048 58.0827 46.3185 57.2308 45.5115Z" fill="#5282F0"/>
<path d="M26.3684 27.4004H31.1314L33.2326 21.5728L33.6528 27.4004H35.9292L37.155 24.001L37.4001 27.4004H54.3155C54.3155 24.0517 52.9724 20.8401 50.5817 18.4722C48.1911 16.1043 44.9486 14.774 41.5677 14.774H39.1162C35.7353 14.774 32.4928 16.1043 30.1021 18.4722C27.7115 20.8401 26.3684 24.0517 26.3684 27.4004Z" fill="#2F2E41"/>
<path d="M162.349 21.7085C165.787 28.4022 168.496 35.3062 176.078 35.3062C179.719 35.3062 183.211 33.8736 185.785 31.3235C188.36 28.7735 189.806 25.3148 189.806 21.7085C189.806 18.1022 188.36 14.6435 185.785 12.0935C183.211 9.5434 179.719 8.11078 176.078 8.11078C168.372 8.01522 155.952 9.2494 162.349 21.7085Z" fill="#2F2E41"/>
<path d="M175.403 35.571C182.053 35.571 187.445 30.2308 187.445 23.6434C187.445 17.0559 182.053 11.7158 175.403 11.7158C168.752 11.7158 163.36 17.0559 163.36 23.6434C163.36 30.2308 168.752 35.571 175.403 35.571Z" fill="#A0616A"/>
<path d="M191.843 45.3851C191.067 44.5474 190.222 43.7743 189.318 43.0735C185.365 40.0049 180.411 38.4838 175.399 38.7999C175.198 38.8096 174.997 38.8242 174.796 38.8436C171.893 39.0734 169.073 39.9129 166.523 41.3063C163.973 42.6996 161.753 44.6149 160.008 46.9245C158.237 49.2694 156.992 51.962 156.356 54.8221C155.72 57.6822 155.708 60.6439 156.321 63.5089C156.454 64.1159 156.571 64.7278 156.684 65.3397H196.604L197.065 62.2802C197.526 59.2566 197.296 56.169 196.392 53.245C195.488 50.321 193.934 47.6351 191.843 45.3851Z" fill="#5282F0"/>
<path d="M197.957 48.5757C197.676 46.9799 196.838 45.5324 195.59 44.4853C194.342 43.4382 192.763 42.8578 191.127 42.8452C191.064 42.8452 190.995 42.8501 190.931 42.8501C190.387 42.8624 189.845 42.9374 189.318 43.0734C188.432 43.3067 187.601 43.711 186.873 44.2631C186.145 44.8152 185.535 45.5043 185.077 46.2908C184.618 47.0773 184.321 47.9457 184.203 48.8462C184.084 49.7466 184.146 50.6614 184.386 51.538L188.156 65.3397H200.845L197.957 48.5757Z" fill="#5282F0"/>
<path d="M170.035 44.9575C169.556 44.0271 168.871 43.2167 168.03 42.5876C167.434 42.1421 166.768 41.7975 166.059 41.5678C165.769 41.4696 165.472 41.3917 165.171 41.3347C163.531 41.0273 161.835 41.3106 160.387 42.1334C158.939 42.9563 157.837 44.2644 157.277 45.8219L150.374 65.3395H163.475L170.157 50.9842C170.603 50.037 170.823 49.0014 170.802 47.9568C170.781 46.9121 170.518 45.8861 170.035 44.9575Z" fill="#5282F0"/>
<path d="M162.624 16.9024C165.376 18.781 168.642 19.7808 171.984 19.7676C170.792 20.5864 169.435 21.1394 168.006 21.3887C172.449 22.3328 177.042 22.3583 181.496 21.4637C182.486 21.3065 183.441 20.9815 184.32 20.503C184.758 20.2608 185.139 19.9301 185.44 19.5323C185.74 19.1344 185.952 18.6785 186.063 18.194C186.359 16.5193 185.041 14.9978 183.672 13.9724C181.576 12.4263 179.159 11.3612 176.596 10.8539C174.033 10.3466 171.388 10.4099 168.853 11.0393C167.198 11.4631 165.54 12.1792 164.464 13.4959C163.389 14.8127 163.071 16.8427 164.095 18.1986L162.624 16.9024Z" fill="#2F2E41"/>
<path d="M107.377 61.6489C103.897 60.0455 99.6251 59.5199 96.0844 61.0098C92.5438 62.4997 90.13 66.3185 91.2748 69.6981C91.7939 71.2304 92.9761 72.7374 92.5156 74.2849C92.161 75.4761 90.9243 76.2626 89.7098 76.8218C88.4952 77.3809 87.1666 77.8511 86.2883 78.7942C85.4099 79.7373 85.2267 81.3609 86.324 82.0923C86.6855 82.3332 87.1373 82.4475 87.4878 82.7015C87.7866 82.9419 88.0022 83.2686 88.1045 83.6362C88.2068 84.0038 88.1908 84.3938 88.0587 84.7519C87.7666 85.4724 87.2837 86.1017 86.6609 86.5733C85.4153 87.6373 83.7691 88.8551 84.1559 90.3655C84.2994 90.7692 84.5391 91.1326 84.8546 91.4249C85.1702 91.7173 85.5523 91.9299 85.9685 92.0447C86.8329 92.2917 87.7298 92.409 88.6293 92.3926L125.385 93.5394C126.598 93.6297 127.819 93.5622 129.014 93.3387C129.595 93.2337 130.148 93.011 130.639 92.6847C131.129 92.3584 131.546 91.9355 131.864 91.4423C132.568 90.1518 132.106 88.5622 131.237 87.3572C130.368 86.1522 129.137 85.2016 128.121 84.0952C127.104 82.9887 126.273 81.6074 126.452 80.1773C126.595 79.0326 127.357 78.0431 127.905 77.0029C128.452 75.9628 128.77 74.6629 128.061 73.706C127.062 72.3576 124.665 72.4796 123.529 71.2231C122.672 70.2748 122.838 68.9098 122.753 67.687C122.548 64.7458 120.492 61.968 117.565 60.6781C116.077 60.0453 114.458 59.7722 112.842 59.8812C111.227 59.9902 109.66 60.4782 108.272 61.305L107.377 61.6489Z" fill="#2F2E41"/>
<path d="M108.737 93.2574C115.388 93.2574 120.779 87.9172 120.779 81.3298C120.779 74.7423 115.388 69.4022 108.737 69.4022C102.086 69.4022 96.6946 74.7423 96.6946 81.3298C96.6946 87.9172 102.086 93.2574 108.737 93.2574Z" fill="#A0616A"/>
<path d="M124.547 108.661C124.535 106.57 123.95 104.522 122.856 102.735C121.761 100.947 120.197 99.4877 118.33 98.5114C118.178 98.4289 118.021 98.356 117.864 98.2832C116.509 97.6469 115.042 97.2775 113.545 97.1953L102.082 96.5592C100.463 96.4676 98.8422 96.7141 97.3256 97.2828C96.9563 97.419 96.5946 97.5746 96.2421 97.749C95.1342 98.2896 94.121 99.0028 93.2414 99.8615C92.0829 100.994 91.1765 102.355 90.5803 103.855C89.9842 105.355 89.7115 106.963 89.7798 108.574L89.9859 113.386L91.4274 117.092H123.478C123.876 116.615 124.221 116.097 124.508 115.547C125.051 114.481 125.338 113.304 125.344 112.109C125.351 110.914 125.078 109.734 124.547 108.661Z" fill="#5282F0"/>
<path d="M123.763 102.28C123.24 101.156 122.42 100.193 121.39 99.4924C120.646 98.9879 119.813 98.6286 118.933 98.4337C118.581 98.357 118.224 98.3067 117.865 98.2831C117.157 98.2354 116.445 98.296 115.756 98.4628C114.727 98.7164 113.769 99.1984 112.956 99.8723C112.142 100.546 111.494 101.394 111.06 102.353C110.626 103.311 110.418 104.355 110.451 105.405C110.484 106.455 110.757 107.484 111.25 108.413L115.658 116.679L115.879 117.092H130.681L123.763 102.28Z" fill="#5282F0"/>
<path d="M99.5369 97.9721C98.8434 97.6227 98.0962 97.3896 97.3257 97.2825C96.7522 97.2016 96.1707 97.1934 95.5951 97.2582C94.1303 97.4225 92.7554 98.0411 91.667 99.0259C90.5785 100.011 89.8323 101.311 89.5348 102.741L86.549 117.091H98.2278L100.41 116.208L103.126 105.883C103.521 104.357 103.381 102.743 102.729 101.305C102.077 99.8682 100.951 98.6929 99.5369 97.9721Z" fill="#5282F0"/>
<path d="M96.4173 79.6341C100.22 79.3316 103.378 75.5687 102.982 71.8101C102.938 73.3593 103.47 74.8707 104.477 76.0568C105.484 77.2428 106.896 78.0208 108.445 78.2427C110.189 78.4331 112.102 77.9103 113.62 78.782C115.302 79.7474 115.84 82.092 117.592 82.9258C119.285 83.7315 121.435 82.6327 122.271 80.9671C123.107 79.3015 122.902 77.3005 122.348 75.5232C121.558 72.9885 120.118 70.6996 118.17 68.879C116.222 67.0585 113.831 65.7683 111.231 65.134C108.63 64.4997 105.908 64.5428 103.329 65.2592C100.75 65.9755 98.4026 67.3407 96.5143 69.222C94.9152 70.8151 93.6455 72.8455 93.4396 75.0827C93.2337 77.3199 94.2815 79.7474 96.3099 80.7524L96.4173 79.6341Z" fill="#2F2E41"/>
</svg>
